<?xml version="1.0" encoding="UTF-8"?>
<svg width="23px" height="23px" viewBox="0 0 23 23" version="1.1" xmlns="http://www.w3.org/2000/svg" xmlns:xlink="http://www.w3.org/1999/xlink">
    <!-- Generator: Sketch 50.2 (55047) - http://www.bohemiancoding.com/sketch -->
    <title>icon-power</title>
    <desc>Created with Sketch.</desc>
    <defs></defs>
    <g id="Page-1" stroke="none" stroke-width="1" fill="none" fill-rule="evenodd">
        <g id="1.3" transform="translate(-1102.000000, -277.000000)" fill="#654FA4" fill-rule="nonzero">
            <g id="icon-power" transform="translate(1101.000000, 276.000000)">
                <path d="M15.9113402,9.83943299 L14.181701,10.1208763 L15.6716495,7.86108247 C15.7940722,7.67525773 15.7904639,7.43376289 15.6626289,7.25206186 C15.5347938,7.07036082 15.3087629,6.98479381 15.0927835,7.0371134 L11.3847938,7.92963918 C11.2131443,7.97087629 11.0721649,8.09329897 11.007732,8.25721649 L9.10850515,13.0801546 C9.0371134,13.2613402 9.06881443,13.467268 9.19046392,13.6188144 C9.31391753,13.7703608 9.50850515,13.8443299 9.7,13.8126289 L11.2639175,13.5548969 L10.3698454,17.3438144 C10.3108247,17.5925258 10.4337629,17.8476804 10.664433,17.9574742 C10.7389175,17.9927835 10.8180412,18.0092784 10.8963918,18.0092784 C11.060567,18.0092784 11.2206186,17.9347938 11.3257732,17.7979381 C16.8770619,10.5657216 16.7587629,10.428866 16.4090206,10.021134 C16.2858247,9.87809278 16.0976804,9.80979381 15.9113402,9.83943299 Z M12.0087629,15.1123711 L12.5041237,13.0131443 C12.5458763,12.8368557 12.4966495,12.6518041 12.3731959,12.5193299 C12.2701031,12.4090206 12.1260309,12.3476804 11.9775773,12.3476804 C11.9484536,12.3476804 11.9185567,12.3497423 11.889433,12.3546392 L10.4654639,12.5891753 L11.9121134,8.91597938 L14.0131443,8.41005155 L12.5992268,10.5548969 C12.4814433,10.7345361 12.4804124,10.967268 12.5971649,11.1474227 C12.7139175,11.3275773 12.9262887,11.4213918 13.1384021,11.3876289 L14.9536082,11.092268 C14.3226804,12.0069588 13.2123711,13.5154639 12.0087629,15.1123711 Z" id="Shape"></path>
                <path d="M24.1376289,12.5159794 C24.1376289,11.2701031 23.1863402,10.2417526 21.9716495,10.1193299 C21.7430412,9.21572165 21.3863402,8.35489691 20.9074742,7.55206186 C21.2592784,7.12319588 21.4505155,6.59072165 21.4505155,6.02835052 C21.4505155,5.38505155 21.1997423,4.77989691 20.7448454,4.325 C20.2896907,3.87036082 19.6847938,3.6193299 19.0414948,3.6193299 C18.4796392,3.6193299 17.9471649,3.81108247 17.5177835,4.16237113 C16.7149485,3.68376289 15.8546392,3.32680412 14.9505155,3.09819588 C14.8280928,1.88350515 13.7997423,0.932216495 12.553866,0.932216495 C11.3079897,0.932216495 10.2796392,1.88350515 10.1572165,3.09819588 C9.25360825,3.32783505 8.39329897,3.68402062 7.59046392,4.16237113 C7.16108247,3.81108247 6.62860825,3.6193299 6.06623711,3.6193299 C5.42345361,3.6193299 4.81829897,3.87061856 4.36340206,4.325 C3.90824742,4.78015464 3.65773196,5.38505155 3.65773196,6.02835052 C3.65773196,6.59072165 3.84896907,7.12268041 4.2007732,7.55206186 C3.72216495,8.35438144 3.36572165,9.21469072 3.13608247,10.1193299 C1.92190722,10.2417526 0.970618557,11.2701031 0.970618557,12.5159794 C0.970618557,13.7618557 1.92190722,14.7902062 3.13659794,14.9126289 C3.36520619,15.8167526 3.72164948,16.6775773 4.20025773,17.4798969 C3.84896907,17.9092784 3.65773196,18.4417526 3.65773196,19.0036082 C3.65773196,19.6474227 3.90850515,20.2520619 4.36340206,20.7069588 C4.81829897,21.1618557 5.42345361,21.4126289 6.06675258,21.4126289 C6.62860825,21.4126289 7.16159794,21.2208763 7.59046392,20.8695876 C8.39329897,21.3481959 9.25360825,21.7051546 10.1572165,21.9337629 C10.2796392,23.1484536 11.3079897,24.0997423 12.553866,24.0997423 C13.7997423,24.0997423 14.8280928,23.1484536 14.9505155,21.9337629 C15.8551546,21.7046392 16.7154639,21.3479381 17.5177835,20.8690722 C17.9471649,21.2208763 18.4796392,21.4121134 19.0414948,21.4121134 C19.6847938,21.4121134 20.2899485,21.1618557 20.7448454,20.7069588 C21.6262887,19.825 21.6801546,18.4247423 20.9074742,17.4798969 C21.385567,16.6770619 21.7425258,15.8167526 21.9716495,14.9126289 C23.1863402,14.7907216 24.1376289,13.7621134 24.1376289,12.5159794 Z M23.0554124,12.5159794 C23.0554124,13.2474227 22.4603093,13.842268 21.7291237,13.842268 C21.7023196,13.842268 21.6783505,13.8363402 21.6520619,13.8347938 C21.6515464,13.8347938 21.6515464,13.8342784 21.6510309,13.8342784 C21.6141753,13.8268041 21.5775773,13.8231959 21.5412371,13.8231959 C20.8994845,13.731701 20.4025773,13.1835052 20.4025773,12.5159794 C20.4025773,11.7845361 20.9976804,11.1896907 21.728866,11.1896907 C22.4600515,11.1896907 23.0554124,11.7845361 23.0554124,12.5159794 Z M19.0414948,16.5948454 C18.3987113,16.5948454 17.7935567,16.8451031 17.3386598,17.3 C16.8829897,17.7546392 16.6329897,18.3595361 16.6329897,19.0028351 C16.6329897,19.3541237 16.7100515,19.6930412 16.8520619,20.0030928 C16.2082474,20.3739691 15.5247423,20.6574742 14.8087629,20.8502577 C14.4670103,19.935567 13.5865979,19.281701 12.5541237,19.281701 C11.5221649,19.281701 10.6417526,19.935567 10.2994845,20.8502577 C9.58427835,20.6574742 8.90051546,20.3739691 8.25670103,20.0036082 C8.39871134,19.6935567 8.4757732,19.3546392 8.4757732,19.0028351 C8.4757732,18.3600515 8.225,17.7548969 7.77010309,17.3005155 C7.31494845,16.8453608 6.71056701,16.5948454 6.06675258,16.5948454 C5.71546392,16.5948454 5.37706186,16.6719072 5.06701031,16.8139175 C4.69613402,16.1701031 4.41262887,15.4865979 4.22036082,14.7706186 C5.13453608,14.428866 5.78891753,13.5484536 5.78891753,12.5159794 C5.78891753,11.4835052 5.13453608,10.6036082 4.21984536,10.2613402 C4.41262887,9.54561856 4.69613402,8.86134021 5.06701031,8.21804124 C5.37706186,8.36005155 5.71597938,8.4371134 6.06675258,8.4371134 C6.71005155,8.4371134 7.31520619,8.18634021 7.77061856,7.7314433 C8.2257732,7.27680412 8.47628866,6.67190722 8.47628866,6.02860825 C8.47628866,5.67731959 8.39871134,5.33840206 8.25721649,5.02835052 C8.90051546,4.65773196 9.58453608,4.37448454 10.2994845,4.18170103 C10.6417526,5.09639175 11.5221649,5.75025773 12.5541237,5.75025773 C13.5865979,5.75025773 14.4670103,5.09639175 14.8087629,4.18170103 C15.5239691,4.37448454 16.2082474,4.65798969 16.8515464,5.02835052 C16.7100515,5.33840206 16.6324742,5.67731959 16.6324742,6.02860825 C16.6324742,6.67190722 16.8832474,7.27706186 17.3376289,7.7314433 C17.793299,8.1871134 18.3976804,8.43762887 19.0414948,8.43762887 C19.3927835,8.43762887 19.731701,8.36005155 20.0417526,8.21804124 C20.4126289,8.86185567 20.696134,9.54587629 20.8884021,10.2613402 C19.9742268,10.6036082 19.3198454,11.4835052 19.3198454,12.5159794 C19.3198454,13.5479381 19.9737113,14.4283505 20.8878866,14.7706186 C20.6951031,15.4858247 20.4115979,16.1701031 20.0417526,16.8134021 C19.731701,16.6719072 19.3927835,16.5948454 19.0414948,16.5948454 Z M19.9796392,5.09046392 C20.2304124,5.34072165 20.368299,5.67448454 20.368299,6.02835052 C20.368299,6.38221649 20.2304124,6.71546392 19.9796392,6.96623711 C19.4783505,7.46752577 18.6043814,7.46752577 18.1036082,6.96623711 C17.8528351,6.71546392 17.7149485,6.38273196 17.7149485,6.02835052 C17.7149485,5.67448454 17.8528351,5.34072165 18.1036082,5.09046392 C18.353866,4.83969072 18.6871134,4.70180412 19.0414948,4.70180412 C19.3958763,4.70180412 19.7291237,4.83969072 19.9796392,5.09046392 Z M12.553866,2.01469072 C13.2858247,2.01469072 13.8806701,2.60979381 13.8806701,3.34097938 C13.8806701,4.07216495 13.285567,4.66726804 12.553866,4.66726804 C11.8224227,4.66726804 11.2275773,4.07216495 11.2275773,3.34097938 C11.2275773,2.60979381 11.8224227,2.01469072 12.553866,2.01469072 Z M5.12835052,5.09046392 C5.37912371,4.83969072 5.71237113,4.70180412 6.06623711,4.70180412 C6.42061856,4.70180412 6.75386598,4.83969072 7.00463918,5.09046392 C7.52216495,5.60747423 7.52216495,6.44896907 7.00463918,6.96597938 C6.50335052,7.46726804 5.62989691,7.46675258 5.12860825,6.96597938 C4.61159794,6.44896907 4.61159794,5.60747423 5.12835052,5.09046392 Z M2.05283505,12.5159794 C2.05283505,11.7845361 2.64793814,11.1896907 3.37912371,11.1896907 C4.11030928,11.1896907 4.70541237,11.7847938 4.70541237,12.5159794 C4.70541237,13.2471649 4.11030928,13.842268 3.37912371,13.842268 C2.64793814,13.842268 2.05283505,13.2471649 2.05283505,12.5159794 Z M5.12835052,19.9412371 C4.87757732,19.6904639 4.73969072,19.357732 4.73969072,19.0033505 C4.73969072,18.6489691 4.87757732,18.3162371 5.12835052,18.0654639 C5.37912371,17.8146907 5.71237113,17.6768041 6.06623711,17.6768041 C6.42010309,17.6768041 6.75335052,17.8146907 7.00412371,18.0654639 C7.25541237,18.3162371 7.39278351,18.6489691 7.39278351,19.0033505 C7.39278351,19.357732 7.25541237,19.6909794 7.00412371,19.9412371 C6.50309278,20.4430412 5.62989691,20.4425258 5.12835052,19.9412371 Z M12.553866,23.0170103 C11.8224227,23.0170103 11.2275773,22.4224227 11.2275773,21.6907216 C11.2275773,20.9592784 11.8226804,20.364433 12.553866,20.364433 C13.2858247,20.364433 13.8806701,20.9595361 13.8806701,21.6907216 C13.8806701,22.4224227 13.2858247,23.0170103 12.553866,23.0170103 Z M19.9796392,19.9412371 C19.4783505,20.4425258 18.6048969,20.4425258 18.1036082,19.9412371 C17.8528351,19.6904639 17.7154639,19.3572165 17.7154639,19.0028351 C17.7154639,18.6489691 17.8528351,18.3157216 18.1036082,18.0649485 C18.3548969,17.8141753 18.6876289,17.6768041 19.0414948,17.6768041 C19.3963918,17.6768041 19.7291237,17.8141753 19.9798969,18.0649485 C20.4966495,18.582732 20.4966495,19.4242268 19.9796392,19.9412371 Z" id="Shape" transform="translate(12.554124, 12.515979) rotate(9.000000) translate(-12.554124, -12.515979) "></path>
            </g>
        </g>
    </g>
</svg>