<?xml version="1.0" encoding="UTF-8"?>
<svg width="23px" height="23px" viewBox="0 0 23 23" version="1.1" xmlns="http://www.w3.org/2000/svg" xmlns:xlink="http://www.w3.org/1999/xlink">
    <!-- Generator: Sketch 50.2 (55047) - http://www.bohemiancoding.com/sketch -->
    <title>icon-power</title>
    <desc>Created with Sketch.</desc>
    <defs></defs>
    <g id="Page-1" stroke="none" stroke-width="1" fill="none" fill-rule="evenodd">
        <g id="1.3" transform="translate(-1149.000000, -277.000000)" fill-rule="nonzero">
            <g id="icon-power" transform="translate(1147.000000, 275.000000)">
                <path d="M16.9113402,10.839433 L15.181701,11.1208763 L16.6716495,8.86108247 C16.7940722,8.67525773 16.7904639,8.43376289 16.6626289,8.25206186 C16.5347938,8.07036082 16.3087629,7.98479381 16.0927835,8.0371134 L12.3847938,8.92963918 C12.2131443,8.97087629 12.0721649,9.09329897 12.007732,9.25721649 L10.1085052,14.0801546 C10.0371134,14.2613402 10.0688144,14.467268 10.1904639,14.6188144 C10.3139175,14.7703608 10.5085052,14.8443299 10.7,14.8126289 L12.2639175,14.5548969 L11.3698454,18.3438144 C11.3108247,18.5925258 11.4337629,18.8476804 11.664433,18.9574742 C11.7389175,18.9927835 11.8180412,19.0092784 11.8963918,19.0092784 C12.060567,19.0092784 12.2206186,18.9347938 12.3257732,18.7979381 C17.8770619,11.5657216 17.7587629,11.428866 17.4090206,11.021134 C17.2858247,10.8780928 17.0976804,10.8097938 16.9113402,10.839433 Z M13.0087629,16.1123711 L13.5041237,14.0131443 C13.5458763,13.8368557 13.4966495,13.6518041 13.3731959,13.5193299 C13.2701031,13.4090206 13.1260309,13.3476804 12.9775773,13.3476804 C12.9484536,13.3476804 12.9185567,13.3497423 12.889433,13.3546392 L11.4654639,13.5891753 L12.9121134,9.91597938 L15.0131443,9.41005155 L13.5992268,11.5548969 C13.4814433,11.7345361 13.4804124,11.967268 13.5971649,12.1474227 C13.7139175,12.3275773 13.9262887,12.4213918 14.1384021,12.3876289 L15.9536082,12.092268 C15.3226804,13.0069588 14.2123711,14.5154639 13.0087629,16.1123711 Z" id="Shape" fill="#F8E71C"></path>
                <path d="M25.1376289,13.5159794 C25.1376289,12.2701031 24.1863402,11.2417526 22.9716495,11.1193299 C22.7430412,10.2157216 22.3863402,9.35489691 21.9074742,8.55206186 C22.2592784,8.12319588 22.4505155,7.59072165 22.4505155,7.02835052 C22.4505155,6.38505155 22.1997423,5.77989691 21.7448454,5.325 C21.2896907,4.87036082 20.6847938,4.6193299 20.0414948,4.6193299 C19.4796392,4.6193299 18.9471649,4.81108247 18.5177835,5.16237113 C17.7149485,4.68376289 16.8546392,4.32680412 15.9505155,4.09819588 C15.8280928,2.88350515 14.7997423,1.93221649 13.553866,1.93221649 C12.3079897,1.93221649 11.2796392,2.88350515 11.1572165,4.09819588 C10.2536082,4.32783505 9.39329897,4.68402062 8.59046392,5.16237113 C8.16108247,4.81108247 7.62860825,4.6193299 7.06623711,4.6193299 C6.42345361,4.6193299 5.81829897,4.87061856 5.36340206,5.325 C4.90824742,5.78015464 4.65773196,6.38505155 4.65773196,7.02835052 C4.65773196,7.59072165 4.84896907,8.12268041 5.2007732,8.55206186 C4.72216495,9.35438144 4.36572165,10.2146907 4.13608247,11.1193299 C2.92190722,11.2417526 1.97061856,12.2701031 1.97061856,13.5159794 C1.97061856,14.7618557 2.92190722,15.7902062 4.13659794,15.9126289 C4.36520619,16.8167526 4.72164948,17.6775773 5.20025773,18.4798969 C4.84896907,18.9092784 4.65773196,19.4417526 4.65773196,20.0036082 C4.65773196,20.6474227 4.90850515,21.2520619 5.36340206,21.7069588 C5.81829897,22.1618557 6.42345361,22.4126289 7.06675258,22.4126289 C7.62860825,22.4126289 8.16159794,22.2208763 8.59046392,21.8695876 C9.39329897,22.3481959 10.2536082,22.7051546 11.1572165,22.9337629 C11.2796392,24.1484536 12.3079897,25.0997423 13.553866,25.0997423 C14.7997423,25.0997423 15.8280928,24.1484536 15.9505155,22.9337629 C16.8551546,22.7046392 17.7154639,22.3479381 18.5177835,21.8690722 C18.9471649,22.2208763 19.4796392,22.4121134 20.0414948,22.4121134 C20.6847938,22.4121134 21.2899485,22.1618557 21.7448454,21.7069588 C22.6262887,20.825 22.6801546,19.4247423 21.9074742,18.4798969 C22.385567,17.6770619 22.7425258,16.8167526 22.9716495,15.9126289 C24.1863402,15.7907216 25.1376289,14.7621134 25.1376289,13.5159794 Z M24.0554124,13.5159794 C24.0554124,14.2474227 23.4603093,14.842268 22.7291237,14.842268 C22.7023196,14.842268 22.6783505,14.8363402 22.6520619,14.8347938 C22.6515464,14.8347938 22.6515464,14.8342784 22.6510309,14.8342784 C22.6141753,14.8268041 22.5775773,14.8231959 22.5412371,14.8231959 C21.8994845,14.731701 21.4025773,14.1835052 21.4025773,13.5159794 C21.4025773,12.7845361 21.9976804,12.1896907 22.728866,12.1896907 C23.4600515,12.1896907 24.0554124,12.7845361 24.0554124,13.5159794 Z M20.0414948,17.5948454 C19.3987113,17.5948454 18.7935567,17.8451031 18.3386598,18.3 C17.8829897,18.7546392 17.6329897,19.3595361 17.6329897,20.0028351 C17.6329897,20.3541237 17.7100515,20.6930412 17.8520619,21.0030928 C17.2082474,21.3739691 16.5247423,21.6574742 15.8087629,21.8502577 C15.4670103,20.935567 14.5865979,20.281701 13.5541237,20.281701 C12.5221649,20.281701 11.6417526,20.935567 11.2994845,21.8502577 C10.5842784,21.6574742 9.90051546,21.3739691 9.25670103,21.0036082 C9.39871134,20.6935567 9.4757732,20.3546392 9.4757732,20.0028351 C9.4757732,19.3600515 9.225,18.7548969 8.77010309,18.3005155 C8.31494845,17.8453608 7.71056701,17.5948454 7.06675258,17.5948454 C6.71546392,17.5948454 6.37706186,17.6719072 6.06701031,17.8139175 C5.69613402,17.1701031 5.41262887,16.4865979 5.22036082,15.7706186 C6.13453608,15.428866 6.78891753,14.5484536 6.78891753,13.5159794 C6.78891753,12.4835052 6.13453608,11.6036082 5.21984536,11.2613402 C5.41262887,10.5456186 5.69613402,9.86134021 6.06701031,9.21804124 C6.37706186,9.36005155 6.71597938,9.4371134 7.06675258,9.4371134 C7.71005155,9.4371134 8.31520619,9.18634021 8.77061856,8.7314433 C9.2257732,8.27680412 9.47628866,7.67190722 9.47628866,7.02860825 C9.47628866,6.67731959 9.39871134,6.33840206 9.25721649,6.02835052 C9.90051546,5.65773196 10.5845361,5.37448454 11.2994845,5.18170103 C11.6417526,6.09639175 12.5221649,6.75025773 13.5541237,6.75025773 C14.5865979,6.75025773 15.4670103,6.09639175 15.8087629,5.18170103 C16.5239691,5.37448454 17.2082474,5.65798969 17.8515464,6.02835052 C17.7100515,6.33840206 17.6324742,6.67731959 17.6324742,7.02860825 C17.6324742,7.67190722 17.8832474,8.27706186 18.3376289,8.7314433 C18.793299,9.1871134 19.3976804,9.43762887 20.0414948,9.43762887 C20.3927835,9.43762887 20.731701,9.36005155 21.0417526,9.21804124 C21.4126289,9.86185567 21.696134,10.5458763 21.8884021,11.2613402 C20.9742268,11.6036082 20.3198454,12.4835052 20.3198454,13.5159794 C20.3198454,14.5479381 20.9737113,15.4283505 21.8878866,15.7706186 C21.6951031,16.4858247 21.4115979,17.1701031 21.0417526,17.8134021 C20.731701,17.6719072 20.3927835,17.5948454 20.0414948,17.5948454 Z M20.9796392,6.09046392 C21.2304124,6.34072165 21.368299,6.67448454 21.368299,7.02835052 C21.368299,7.38221649 21.2304124,7.71546392 20.9796392,7.96623711 C20.4783505,8.46752577 19.6043814,8.46752577 19.1036082,7.96623711 C18.8528351,7.71546392 18.7149485,7.38273196 18.7149485,7.02835052 C18.7149485,6.67448454 18.8528351,6.34072165 19.1036082,6.09046392 C19.353866,5.83969072 19.6871134,5.70180412 20.0414948,5.70180412 C20.3958763,5.70180412 20.7291237,5.83969072 20.9796392,6.09046392 Z M13.553866,3.01469072 C14.2858247,3.01469072 14.8806701,3.60979381 14.8806701,4.34097938 C14.8806701,5.07216495 14.285567,5.66726804 13.553866,5.66726804 C12.8224227,5.66726804 12.2275773,5.07216495 12.2275773,4.34097938 C12.2275773,3.60979381 12.8224227,3.01469072 13.553866,3.01469072 Z M6.12835052,6.09046392 C6.37912371,5.83969072 6.71237113,5.70180412 7.06623711,5.70180412 C7.42061856,5.70180412 7.75386598,5.83969072 8.00463918,6.09046392 C8.52216495,6.60747423 8.52216495,7.44896907 8.00463918,7.96597938 C7.50335052,8.46726804 6.62989691,8.46675258 6.12860825,7.96597938 C5.61159794,7.44896907 5.61159794,6.60747423 6.12835052,6.09046392 Z M3.05283505,13.5159794 C3.05283505,12.7845361 3.64793814,12.1896907 4.37912371,12.1896907 C5.11030928,12.1896907 5.70541237,12.7847938 5.70541237,13.5159794 C5.70541237,14.2471649 5.11030928,14.842268 4.37912371,14.842268 C3.64793814,14.842268 3.05283505,14.2471649 3.05283505,13.5159794 Z M6.12835052,20.9412371 C5.87757732,20.6904639 5.73969072,20.357732 5.73969072,20.0033505 C5.73969072,19.6489691 5.87757732,19.3162371 6.12835052,19.0654639 C6.37912371,18.8146907 6.71237113,18.6768041 7.06623711,18.6768041 C7.42010309,18.6768041 7.75335052,18.8146907 8.00412371,19.0654639 C8.25541237,19.3162371 8.39278351,19.6489691 8.39278351,20.0033505 C8.39278351,20.357732 8.25541237,20.6909794 8.00412371,20.9412371 C7.50309278,21.4430412 6.62989691,21.4425258 6.12835052,20.9412371 Z M13.553866,24.0170103 C12.8224227,24.0170103 12.2275773,23.4224227 12.2275773,22.6907216 C12.2275773,21.9592784 12.8226804,21.364433 13.553866,21.364433 C14.2858247,21.364433 14.8806701,21.9595361 14.8806701,22.6907216 C14.8806701,23.4224227 14.2858247,24.0170103 13.553866,24.0170103 Z M20.9796392,20.9412371 C20.4783505,21.4425258 19.6048969,21.4425258 19.1036082,20.9412371 C18.8528351,20.6904639 18.7154639,20.3572165 18.7154639,20.0028351 C18.7154639,19.6489691 18.8528351,19.3157216 19.1036082,19.0649485 C19.3548969,18.8141753 19.6876289,18.6768041 20.0414948,18.6768041 C20.3963918,18.6768041 20.7291237,18.8141753 20.9798969,19.0649485 C21.4966495,19.582732 21.4966495,20.4242268 20.9796392,20.9412371 Z" id="Shape" fill="#4CD566" transform="translate(13.554124, 13.515979) rotate(9.000000) translate(-13.554124, -13.515979) "></path>
            </g>
        </g>
    </g>
</svg>