<?xml version="1.0" encoding="UTF-8"?>
<svg width="65px" height="65px" viewBox="0 0 65 65" version="1.1" xmlns="http://www.w3.org/2000/svg" xmlns:xlink="http://www.w3.org/1999/xlink">
    <!-- Generator: Sketch 48.2 (47327) - http://www.bohemiancoding.com/sketch -->
    <title>ic_sucess</title>
    <desc>Created with Sketch.</desc>
    <defs></defs>
    <g id="aviso-de-indisponibilidade-copy-2" stroke="none" stroke-width="1" fill="none" fill-rule="evenodd" transform="translate(-148.000000, -260.000000)">
        <g id="Group-4" transform="translate(33.000000, 188.000000)" fill="#4CD566" fill-rule="nonzero">
            <g id="ic_sucess" transform="translate(115.000000, 72.000000)">
                <path d="M15.0295459,48 C14.8903391,48 14.6815289,47.9310396 14.5423221,47.8620792 C14.0550983,47.5862377 13.8462881,46.9655942 14.1247017,46.4828715 C17.8832854,39.8626743 24.8436257,35.9319322 32.7088102,36.0008926 C40.4347879,36.069853 47.3951282,40.0695554 50.8752983,46.4139111 C51.1537119,46.8966338 50.9449017,47.5172773 50.4576779,47.7931188 C49.9704541,48.0689604 49.3440235,47.8620792 49.0656099,47.3793565 C45.9334567,41.6556443 39.6691505,38.1386646 32.7088102,38.0697042 C25.6092631,38.0007438 19.3449569,41.5177236 15.9343901,47.4483169 C15.7255799,47.7931188 15.3775629,48 15.0295459,48 Z" id="Shape" transform="translate(32.500000, 42.000000) scale(1, -1) translate(-32.500000, -42.000000) "></path>
                <path d="M20,26 C17.260274,26 15,23.739726 15,21 C15,18.260274 17.260274,16 20,16 C22.739726,16 25,18.260274 25,21 C25,23.739726 22.739726,26 20,26 Z M20,18.1232877 C18.3561644,18.1232877 17.0547945,19.4246575 17.0547945,21.0684932 C17.0547945,22.7123288 18.3561644,24.0136986 20,24.0136986 C21.6438356,24.0136986 22.9452055,22.7123288 22.9452055,21.0684932 C22.9452055,19.4246575 21.6438356,18.1232877 20,18.1232877 Z" id="Shape"></path>
                <path d="M44,26 C41.260274,26 39,23.739726 39,21 C39,18.260274 41.260274,16 44,16 C46.739726,16 49,18.260274 49,21 C49,23.739726 46.739726,26 44,26 Z M44,18.1232877 C42.3561644,18.1232877 41.0547945,19.4246575 41.0547945,21.0684932 C41.0547945,22.7123288 42.3561644,24.0136986 44,24.0136986 C45.6438356,24.0136986 46.9452055,22.7123288 46.9452055,21.0684932 C46.9452055,19.4246575 45.6438356,18.1232877 44,18.1232877 Z" id="Shape"></path>
                <path d="M15.0295459,48 C14.8903391,48 14.6815289,47.9310396 14.5423221,47.8620792 C14.0550983,47.5862377 13.8462881,46.9655942 14.1247017,46.4828715 C17.8832854,39.8626743 24.8436257,35.9319322 32.7088102,36.0008926 C40.4347879,36.069853 47.3951282,40.0695554 50.8752983,46.4139111 C51.1537119,46.8966338 50.9449017,47.5172773 50.4576779,47.7931188 C49.9704541,48.0689604 49.3440235,47.8620792 49.0656099,47.3793565 C45.9334567,41.6556443 39.6691505,38.1386646 32.7088102,38.0697042 C25.6092631,38.0007438 19.3449569,41.5177236 15.9343901,47.4483169 C15.7255799,47.7931188 15.3775629,48 15.0295459,48 Z" id="Shape" transform="translate(32.500000, 42.000000) scale(1, -1) translate(-32.500000, -42.000000) "></path>
                <path d="M20,26 C17.260274,26 15,23.739726 15,21 C15,18.260274 17.260274,16 20,16 C22.739726,16 25,18.260274 25,21 C25,23.739726 22.739726,26 20,26 Z M20,18.1232877 C18.3561644,18.1232877 17.0547945,19.4246575 17.0547945,21.0684932 C17.0547945,22.7123288 18.3561644,24.0136986 20,24.0136986 C21.6438356,24.0136986 22.9452055,22.7123288 22.9452055,21.0684932 C22.9452055,19.4246575 21.6438356,18.1232877 20,18.1232877 Z" id="Shape"></path>
                <path d="M44,26 C41.260274,26 39,23.739726 39,21 C39,18.260274 41.260274,16 44,16 C46.739726,16 49,18.260274 49,21 C49,23.739726 46.739726,26 44,26 Z M44,18.1232877 C42.3561644,18.1232877 41.0547945,19.4246575 41.0547945,21.0684932 C41.0547945,22.7123288 42.3561644,24.0136986 44,24.0136986 C45.6438356,24.0136986 46.9452055,22.7123288 46.9452055,21.0684932 C46.9452055,19.4246575 45.6438356,18.1232877 44,18.1232877 Z" id="Shape"></path>
                <path d="M50.4623656,65 L14.5376344,65 C6.5,65 0,58.5 0,50.4623656 L0,32.5 C0,14.6075269 14.6075269,0 32.5,0 C50.3924731,0 65,14.6075269 65,32.5 L65,50.4623656 C65,58.5 58.5,65 50.4623656,65 Z M32.5,3.49462366 C16.4946237,3.49462366 3.49462366,16.4946237 3.49462366,32.5 L3.49462366,50.4623656 C3.49462366,56.5430108 8.45698925,61.5053763 14.5376344,61.5053763 L50.4623656,61.5053763 C56.5430108,61.5053763 61.5053763,56.5430108 61.5053763,50.4623656 L61.5053763,32.5 C61.5053763,16.4946237 48.5053763,3.49462366 32.5,3.49462366 Z" id="Shape"></path>
            </g>
        </g>
    </g>
</svg>